PathFileType	4	(X/Y/Z)	D:\TRACE\v60_Jaco2_6-2-23\ArmBody_Mo2_DMP_1-v60.trc
DataRate	CameraRate	NumFrames	NumMarkers	Units	OrigDataRate	OrigDataStartFrame	OrigNumFrames
100.00	100.00	      41	9	mm	100.00	5733	      6551
Frame#	Time	front left toe			Front right toe			aft left toe			aft right toe			Arm			FL body			FR body			AL Body			AR Body			
		X1	Y1	Z1	X2	Y2	Z2	X3	Y3	Z3	X4	Y4	Z4	X5	Y5	Z5	X6	Y6	Z6	X7	Y7	Z7	X8	Y8	Z8	X9	Y9	Z9	

5733	57.320	-231.60748	-15.53644	-314.78250	160.41357	-23.63522	-381.03506	-176.52414	38.20438	257.73801	235.88271	46.75371	258.80161	25.72998	997.53345	-809.51379	-140.64734	529.57269	-492.23041	17.45437	533.73779	-507.49567	-43.53506	610.76923	445.68259	108.84829	601.94507	431.27786	
5734	57.330	-231.40054	-15.62727	-314.76028	160.92964	-23.53561	-380.81772	-176.33412	38.18729	257.77872	235.96471	46.71523	258.80960	26.11314	997.33923	-809.58862	-140.30849	529.24219	-492.15704	18.28040	533.74463	-507.99237	-43.34400	610.98035	445.66681	109.06088	602.09711	431.28177	
5735	57.340	-231.14322	-15.73357	-314.77448	161.07576	-23.47822	-380.79718	-176.15379	38.13248	257.83380	236.16031	46.76678	258.86435	26.87516	996.95453	-809.65454	-140.06879	528.98444	-492.13315	18.86103	533.39465	-507.94455	-43.09402	611.19824	445.68307	109.31172	602.26111	431.25195	
5736	57.350	-230.99121	-15.73772	-314.76758	161.18776	-23.46485	-380.79022	-176.10347	38.12983	257.86505	236.24628	46.71449	258.86572	27.30429	996.65570	-809.94849	-139.62476	528.68146	-491.88647	18.58336	533.00830	-507.61569	-42.74257	611.46210	445.73526	109.64780	602.47766	431.24121	
5737	57.360	-230.84438	-15.75968	-314.75195	161.57545	-23.31879	-380.62521	-175.93030	38.18171	257.93671	236.39566	46.72804	258.87097	27.75294	996.17657	-810.25525	-139.27910	528.45148	-491.69189	18.88610	532.41364	-507.09857	-41.64331	611.76843	446.36172	110.10085	602.77887	431.29282	
5738	57.370	-230.69415	-15.71144	-314.81287	161.65498	-23.36272	-380.66061	-175.81512	38.20486	257.95343	236.45654	46.72665	258.85980	28.39545	995.58655	-810.32690	-139.37833	528.48627	-492.00058	19.42817	532.43561	-507.44907	-41.21601	612.11444	446.31995	111.95368	602.96100	431.40872	
5739	57.380	-230.59422	-15.62924	-314.78036	161.78316	-23.35841	-380.65790	-175.65723	38.26441	258.00589	236.51717	46.64937	258.79462	28.96174	995.02637	-810.36444	-139.04466	528.32739	-491.95197	19.41141	532.01697	-506.76633	-40.93911	612.44092	446.25851	112.05094	603.01581	431.30008	
5740	57.390	-230.49460	-15.62814	-314.82281	161.93161	-23.39345	-380.66315	-175.46480	38.28217	257.99295	236.59364	46.63135	258.74872	29.08334	994.56549	-810.71271	-138.65753	528.20551	-491.84439	20.16450	532.22504	-507.47372	-41.51094	612.52942	445.75888	110.87699	603.47974	431.17087	
5741	57.400	-230.41264	-15.57213	-314.80994	162.19937	-23.42320	-380.67050	-175.34688	38.22406	257.94199	237.58983	46.90028	259.02213	29.63874	994.17255	-810.99030	-138.16719	527.93677	-491.79840	20.50973	531.90820	-507.45020	-41.27697	612.78540	445.81577	111.35580	603.76465	431.29221	
5742	57.410	-230.26917	-15.49410	-314.80994	162.24947	-23.52580	-380.73849	-175.27196	38.24238	257.93716	237.94061	46.98325	259.00836	30.06814	993.82458	-811.34540	-137.68555	527.68066	-491.61621	20.78838	531.66711	-507.38040	-41.08760	613.25226	445.81555	111.56963	604.02972	431.36826	
5743	57.420	-230.08556	-15.44688	-314.78549	162.36707	-23.54949	-380.71130	-175.17165	38.29618	257.83801	238.16550	47.03388	259.02060	30.34582	993.55835	-811.44794	-137.49783	527.51996	-491.50476	21.20747	531.50470	-507.37714	-40.24583	613.56775	446.39362	111.76925	604.34106	431.29758	
5744	57.430	-229.84773	-15.40888	-314.69659	162.49139	-23.50975	-380.63583	-175.08473	38.31991	257.78094	238.51187	47.12920	259.07843	30.63223	993.34039	-811.53967	-137.24216	527.39233	-491.51840	21.56543	531.36597	-507.33273	-39.78043	613.78015	446.20609	111.97638	604.34216	431.26471	
5745	57.440	-229.65608	-15.31795	-314.66406	162.43787	-23.58057	-380.69745	-174.92751	38.46020	257.69574	238.53546	47.09963	259.06039	30.99439	993.12433	-811.65314	-136.85286	527.24457	-491.59512	21.91986	531.21375	-507.23569	-40.21626	613.94452	445.75604	112.01611	604.59576	431.23773	
5746	57.450	-229.07814	-15.71700	-314.57297	162.51888	-23.60807	-380.71957	-174.82640	38.54692	257.67087	238.08659	46.90432	258.84525	31.50999	992.94580	-811.94836	-136.58496	527.15118	-491.50433	22.28542	531.05627	-507.13647	-39.69788	614.29474	445.65128	112.42638	605.05792	431.35977	
5747	57.460	-228.85927	-15.80600	-314.52621	162.50833	-23.58273	-380.73093	-174.57813	38.62518	257.68542	238.06389	46.89258	258.82169	32.00365	992.78601	-812.28113	-136.14566	527.08203	-491.44720	22.53243	530.97333	-507.14059	-39.11743	614.62323	445.64581	112.94193	605.44055	431.32855	
5748	57.470	-228.62560	-15.89082	-314.48233	162.58023	-23.70231	-380.79730	-174.34016	38.70209	257.68704	238.18341	46.85038	258.75931	32.44152	992.43408	-812.31128	-135.73024	527.00159	-491.44492	22.88742	530.85223	-507.12976	-38.04509	614.82593	446.09039	113.27394	605.69708	431.30032	
5749	57.480	-228.52370	-15.93325	-314.48334	162.63220	-23.70936	-380.80850	-174.18515	38.74132	257.69595	238.30489	46.84334	258.73804	32.75446	992.02832	-812.44342	-135.84335	527.11353	-491.77689	22.91621	530.92328	-507.19131	-37.93951	614.94537	445.97372	113.69245	605.84326	431.35345	
5750	57.490	-228.49236	-15.94175	-314.46579	162.72289	-23.71445	-380.82141	-174.10452	38.74299	257.66321	238.34756	46.80448	258.72403	33.28690	991.68695	-812.70184	-135.66240	527.04169	-491.67642	23.08956	530.83209	-507.19772	-37.80869	615.13409	445.96298	115.20428	605.79102	431.43738	
5751	57.500	-228.34734	-15.99659	-314.48068	162.71663	-23.79107	-380.85681	-173.94498	38.71215	257.64981	238.46753	46.85722	258.74481	33.51911	991.63617	-812.88934	-135.53743	527.00024	-491.59952	22.90241	530.20874	-506.64478	-38.11759	615.31287	445.49399	114.32821	605.87537	431.35391	
5752	57.510	-228.93260	-15.37032	-314.37051	162.98201	-23.74009	-380.78122	-173.85126	38.61421	257.62027	238.55869	46.85782	258.76373	33.76867	991.47888	-812.82935	-135.21832	526.88654	-491.59229	23.05201	530.12433	-506.71393	-37.92907	615.50354	445.48163	113.91671	605.66956	431.01053	
5753	57.520	-228.82434	-15.38400	-314.30194	163.20912	-23.63960	-380.70212	-173.75455	38.57119	257.60715	238.69090	46.85299	258.78705	34.26218	991.14313	-812.92902	-134.73958	526.66156	-491.45065	23.40986	530.00671	-506.78561	-37.69132	615.79199	445.68793	114.06399	605.74359	430.95444	
5754	57.530	-228.58946	-15.39805	-314.21463	163.35378	-23.64490	-380.70032	-173.62152	38.51361	257.65396	238.92281	46.74294	258.89487	34.60790	990.87579	-813.08167	-134.40436	526.51221	-491.36505	23.79370	529.82404	-506.78638	-37.33095	615.93671	445.50235	115.06200	606.17554	431.36618	
5755	57.540	-228.30560	-15.23164	-314.22177	163.82942	-23.50723	-380.51358	-173.47144	38.42727	257.74106	239.18570	46.64926	258.95450	35.13094	990.51538	-813.21088	-133.92056	526.35138	-491.35684	24.30510	529.61285	-506.81085	-36.82215	616.14392	445.55807	115.56543	606.35278	431.34509	
5756	57.550	-228.20305	-15.05832	-314.25772	163.97107	-23.56720	-380.49557	-173.36598	38.37724	257.70172	239.32877	46.59815	258.98178	35.89342	990.36780	-813.11133	-133.61594	526.27747	-491.27640	24.72392	529.43805	-506.79657	-36.68674	616.34894	445.50842	116.02227	606.70844	431.38873	
5757	57.560	-228.10078	-15.08643	-314.24872	164.14119	-23.49878	-380.51721	-173.21646	38.40453	257.82019	239.44473	46.51510	259.00449	35.98542	989.94659	-813.36298	-133.37723	526.14069	-491.20389	25.24871	529.56860	-507.17770	-35.85754	616.77789	445.95093	116.20298	607.11090	431.34668	
5758	57.570	-227.94717	-15.12645	-314.24155	164.54686	-23.43462	-380.36029	-172.98001	38.31393	257.92163	239.41219	46.33179	258.93762	36.17240	989.80029	-813.61969	-133.17661	526.05328	-491.08438	25.56330	529.43622	-507.10455	-36.12328	616.90643	445.43353	116.56466	607.38611	431.45432	
5759	57.580	-227.82458	-15.10400	-314.27557	164.60999	-23.44011	-380.40356	-172.78172	38.35251	258.00485	239.48386	46.32904	258.95099	36.62743	989.51733	-813.88452	-132.95352	525.94983	-490.97949	25.85973	529.34448	-507.05499	-35.77161	617.14410	445.49683	116.77581	607.54150	431.60675	
5760	57.590	-227.63031	-15.01811	-314.27979	164.90446	-23.33124	-380.28638	-172.58636	38.30480	258.00897	240.99165	46.61151	259.41183	37.07635	989.13507	-813.98511	-133.04030	526.06213	-491.25787	26.10091	529.29822	-507.00171	-35.42325	617.39093	445.54163	116.90392	607.51868	431.57675	
5761	57.600	-227.44865	-14.90634	-314.35217	165.01666	-23.29166	-380.32101	-172.44991	38.24612	257.98697	241.04462	46.46561	259.38602	37.30625	988.99451	-813.99280	-132.68405	525.97992	-491.28796	26.11819	529.39264	-507.08698	-35.14625	617.50476	445.58972	118.13795	607.74835	433.12155	
5762	57.610	-227.26636	-14.78757	-314.34821	165.18056	-23.24213	-380.34918	-172.27652	38.22623	257.96729	241.35718	46.48056	259.47110	37.59573	989.00140	-813.97571	-132.38908	525.88757	-491.26447	25.96323	528.74036	-506.16772	-34.47591	617.58405	445.98206	117.34566	608.03503	433.01859	
5763	57.620	-227.07808	-14.61736	-314.39151	165.32179	-23.22536	-380.38864	-172.04591	38.24554	257.95096	240.74782	46.33262	259.17657	37.96268	989.05615	-813.91107	-131.90535	525.85577	-491.25909	26.16985	528.84290	-506.17041	-34.14019	617.63361	446.08231	117.74609	607.99414	433.03003	
5764	57.630	-226.86580	-14.61557	-314.46231	165.46423	-23.19467	-380.41083	-171.84367	38.31465	257.86020	240.79713	46.26872	259.14178	38.54346	989.22827	-813.80908	-131.49413	525.86884	-491.19653	26.67421	528.83557	-506.21091	-33.75253	617.62299	446.11319	118.23005	608.03986	432.97821	
5765	57.640	-226.75430	-14.57304	-314.50983	165.50349	-23.12655	-380.43094	-171.73558	38.30082	257.81583	240.79877	46.26685	259.14542	39.09498	989.24335	-813.78741	-131.20901	525.87482	-491.13568	27.02228	528.86267	-506.15958	-33.38008	617.54547	446.12097	118.33960	608.00842	433.00525	
5766	57.650	-226.53661	-14.55021	-314.51239	166.69522	-22.70616	-379.96072	-171.58168	38.27697	257.78317	240.87996	46.22884	259.13696	39.33925	989.48395	-813.53040	-130.89973	526.00745	-490.98755	27.19000	528.81628	-506.12579	-33.18623	617.51868	446.10773	118.62190	607.99170	432.97388	
5767	57.660	-225.98936	-14.89616	-314.44440	166.84398	-22.61719	-379.93845	-171.44589	38.20811	257.76874	241.07663	46.23226	259.17004	39.81117	989.65961	-813.38934	-130.67067	526.11914	-490.88660	27.33406	528.83954	-506.01248	-32.99288	617.45026	446.06744	118.77518	607.85907	433.00702	
5768	57.670	-226.30116	-14.40235	-314.43262	165.90163	-22.96530	-380.55389	-171.28481	38.20845	257.83749	241.17352	46.17735	259.16211	39.88765	989.67535	-813.49457	-130.38940	526.22791	-490.77139	27.67244	528.75415	-505.82727	-32.83220	617.38843	446.07895	119.06788	608.02667	433.14108	
5769	57.680	-226.22832	-14.29003	-314.41998	166.85764	-22.58683	-380.07654	-171.11160	38.08398	257.90829	241.29877	46.14697	259.13553	40.23527	989.65839	-813.42316	-130.14308	526.29700	-490.72903	27.90595	528.74774	-505.74298	-32.62139	617.40686	446.07492	119.03368	607.87677	433.28644	
5770	57.690	-226.00302	-14.25165	-314.34055	166.06860	-22.86333	-380.57605	-170.91599	38.06353	258.03500	241.37335	46.13907	259.18719	40.60943	989.59534	-813.42474	-129.77357	526.20215	-490.61230	28.26472	528.76489	-505.61111	-32.82744	617.35889	445.84088	119.35949	608.02875	433.35983	
5771	57.700	-225.84465	-14.18398	-314.31116	166.28192	-22.74599	-380.52280	-170.83661	38.04649	258.07770	241.45929	46.05742	259.17096	40.99998	989.44104	-813.41858	-129.30835	526.14514	-490.51083	28.75085	528.82446	-505.35736	-32.65675	617.33374	445.91162	119.89702	608.15662	433.46466	
5772	57.710	-225.71248	-14.12937	-314.22635	166.54694	-22.59658	-380.46255	-170.70395	38.03957	258.16553	241.59439	45.98918	259.20807	41.58145	989.31866	-813.31885	-129.15233	526.11633	-490.47433	29.13097	528.80933	-505.22232	-32.44553	617.40601	445.98544	120.13756	607.98889	433.57010	
5773	57.720	-225.54335	-13.97866	-314.17026	166.74123	-22.48370	-380.38318	-170.59477	38.06250	258.23669	241.66447	45.81262	259.27701	41.94488	989.33868	-813.34540	-129.29660	526.41577	-490.76422	29.16472	528.91418	-505.39545	-32.16996	617.44727	446.08124	120.54116	608.10559	433.63852	
